<mxfile host="65bd71144e">
    <diagram id="G1_WaklZp1itaRuujwWX" name="Page-1">
        <mxGraphModel dx="856" dy="1599" grid="1" gridSize="10" guides="1" tooltips="1" connect="1" arrows="1" fold="1" page="1" pageScale="1" pageWidth="850" pageHeight="1100" math="0" shadow="0">
            <root>
                <mxCell id="0"/>
                <mxCell id="1" parent="0"/>
                <mxCell id="41" value="" style="whiteSpace=wrap;html=1;aspect=fixed;" vertex="1" parent="1">
                    <mxGeometry x="40" y="-600" width="780" height="780" as="geometry"/>
                </mxCell>
                <mxCell id="10" value="User" style="html=1;whiteSpace=wrap;dashed=1;" parent="1" vertex="1">
                    <mxGeometry x="80" y="-420" width="110" height="30" as="geometry"/>
                </mxCell>
                <mxCell id="11" value="" style="shape=umlLifeline;perimeter=lifelinePerimeter;whiteSpace=wrap;html=1;container=1;dropTarget=0;collapsible=0;recursiveResize=0;outlineConnect=0;portConstraint=eastwest;newEdgeStyle={&quot;curved&quot;:0,&quot;rounded&quot;:0};participant=umlActor;" parent="1" vertex="1">
                    <mxGeometry x="125" y="-390" width="20" height="370" as="geometry"/>
                </mxCell>
                <mxCell id="13" value="Pet Schdule Console" style="html=1;whiteSpace=wrap;" parent="1" vertex="1">
                    <mxGeometry x="400" y="-420" width="160" height="50" as="geometry"/>
                </mxCell>
                <mxCell id="14" value="" style="html=1;verticalAlign=bottom;labelBackgroundColor=none;endArrow=block;endFill=1;dashed=1;exitX=0.5;exitY=1;exitDx=0;exitDy=0;" parent="1" source="13" edge="1">
                    <mxGeometry width="160" relative="1" as="geometry">
                        <mxPoint x="360" y="-140" as="sourcePoint"/>
                        <mxPoint x="480" y="-30" as="targetPoint"/>
                    </mxGeometry>
                </mxCell>
                <mxCell id="15" value="" style="html=1;verticalAlign=bottom;labelBackgroundColor=none;endArrow=block;endFill=1;dashed=1;" parent="1" edge="1">
                    <mxGeometry width="160" relative="1" as="geometry">
                        <mxPoint x="125" y="-320" as="sourcePoint"/>
                        <mxPoint x="480" y="-320" as="targetPoint"/>
                    </mxGeometry>
                </mxCell>
                <mxCell id="17" value="1) Select &quot;Feed Pet&quot;" style="text;strokeColor=none;align=left;fillColor=none;html=1;verticalAlign=middle;whiteSpace=wrap;rounded=0;" parent="1" vertex="1">
                    <mxGeometry x="160" y="-360" width="170" height="30" as="geometry"/>
                </mxCell>
                <mxCell id="19" value="" style="html=1;verticalAlign=bottom;labelBackgroundColor=none;endArrow=block;endFill=1;dashed=1;" parent="1" edge="1">
                    <mxGeometry width="160" relative="1" as="geometry">
                        <mxPoint x="480" y="-280" as="sourcePoint"/>
                        <mxPoint x="135" y="-280" as="targetPoint"/>
                    </mxGeometry>
                </mxCell>
                <mxCell id="20" value="2) Prompt for Id and Amount&amp;nbsp;" style="text;strokeColor=none;align=left;fillColor=none;html=1;verticalAlign=middle;whiteSpace=wrap;rounded=0;" parent="1" vertex="1">
                    <mxGeometry x="500" y="-310" width="170" height="30" as="geometry"/>
                </mxCell>
                <mxCell id="21" value="&lt;p style=&quot;margin: 0in; font-size: 12pt; font-family: &amp;quot;Times New Roman&amp;quot;, serif; color: rgb(0, 0, 0); text-align: start;&quot; class=&quot;MsoNormal&quot;&gt;&lt;b&gt;&lt;span style=&quot;font-size: 18pt;&quot;&gt;Use Case: Feed a&amp;nbsp; Pet&lt;/span&gt;&lt;/b&gt;&lt;/p&gt;" style="text;strokeColor=none;align=center;fillColor=none;html=1;verticalAlign=middle;whiteSpace=wrap;rounded=0;dashed=1;dashPattern=1 1;" parent="1" vertex="1">
                    <mxGeometry x="140" y="-565" width="400" height="30" as="geometry"/>
                </mxCell>
                <mxCell id="22" value="3) Enter pet&amp;nbsp; Id and Feed amount" style="text;strokeColor=none;align=left;fillColor=none;html=1;verticalAlign=middle;whiteSpace=wrap;rounded=0;" parent="1" vertex="1">
                    <mxGeometry x="160" y="-270" width="260" height="30" as="geometry"/>
                </mxCell>
                <mxCell id="23" value="" style="html=1;verticalAlign=bottom;labelBackgroundColor=none;endArrow=classic;endFill=1;dashed=1;" parent="1" edge="1">
                    <mxGeometry width="160" relative="1" as="geometry">
                        <mxPoint x="132" y="-236" as="sourcePoint"/>
                        <mxPoint x="477" y="-236" as="targetPoint"/>
                    </mxGeometry>
                </mxCell>
                <mxCell id="24" value="4) Attempt to use Inventory&lt;div&gt;IInventoryService.UseFoodStock(amount)&lt;/div&gt;" style="text;strokeColor=none;align=left;fillColor=none;html=1;verticalAlign=middle;whiteSpace=wrap;rounded=0;" parent="1" vertex="1">
                    <mxGeometry x="500" y="-250" width="260" height="30" as="geometry"/>
                </mxCell>
                <mxCell id="26" value="&lt;div&gt;If success:&lt;/div&gt;&lt;span style=&quot;white-space: pre;&quot;&gt;&#x9;&lt;/span&gt;5) Call AddFeedRecord(petId,amount)&lt;div&gt;else&lt;/div&gt;&lt;div&gt;&amp;nbsp; Show &quot;Not enought stock&quot; messae&lt;/div&gt;" style="text;strokeColor=none;align=left;fillColor=none;html=1;verticalAlign=middle;whiteSpace=wrap;rounded=0;" parent="1" vertex="1">
                    <mxGeometry x="500" y="-220" width="270" height="90" as="geometry"/>
                </mxCell>
                <mxCell id="27" value="6) Return FeedRecord" style="text;strokeColor=none;align=left;fillColor=none;html=1;verticalAlign=middle;whiteSpace=wrap;rounded=0;" parent="1" vertex="1">
                    <mxGeometry x="500" y="-120" width="260" height="30" as="geometry"/>
                </mxCell>
                <mxCell id="28" value="" style="html=1;verticalAlign=bottom;labelBackgroundColor=none;endArrow=classic;endFill=1;dashed=1;" parent="1" edge="1">
                    <mxGeometry width="160" relative="1" as="geometry">
                        <mxPoint x="477.5" y="-110" as="sourcePoint"/>
                        <mxPoint x="132.5" y="-110" as="targetPoint"/>
                    </mxGeometry>
                </mxCell>
                <mxCell id="29" value="&lt;span style=&quot;color: rgb(0, 0, 0);&quot;&gt;(End)&lt;/span&gt;" style="text;strokeColor=none;align=left;fillColor=none;html=1;verticalAlign=middle;whiteSpace=wrap;rounded=0;" parent="1" vertex="1">
                    <mxGeometry x="160" y="-50" width="310" height="30" as="geometry"/>
                </mxCell>
                <mxCell id="37" style="edgeStyle=none;html=1;exitX=1;exitY=1;exitDx=0;exitDy=0;dashed=1;" edge="1" parent="1" source="30">
                    <mxGeometry relative="1" as="geometry">
                        <mxPoint x="790" y="-80" as="targetPoint"/>
                    </mxGeometry>
                </mxCell>
                <mxCell id="30" value="IPetService" style="html=1;whiteSpace=wrap;dashed=1;" vertex="1" parent="1">
                    <mxGeometry x="630" y="-420" width="160" height="50" as="geometry"/>
                </mxCell>
                <mxCell id="32" value="7) Display success message" style="text;strokeColor=none;align=left;fillColor=none;html=1;verticalAlign=middle;whiteSpace=wrap;rounded=0;" vertex="1" parent="1">
                    <mxGeometry x="150" y="-100" width="310" height="30" as="geometry"/>
                </mxCell>
                <mxCell id="33" value="" style="html=1;verticalAlign=bottom;labelBackgroundColor=none;endArrow=classic;endFill=1;dashed=1;" edge="1" parent="1">
                    <mxGeometry width="160" relative="1" as="geometry">
                        <mxPoint x="477.5" y="-60" as="sourcePoint"/>
                        <mxPoint x="132.5" y="-60" as="targetPoint"/>
                    </mxGeometry>
                </mxCell>
                <mxCell id="40" value="&lt;ul style=&quot;margin-bottom: 0in; color: rgb(0, 0, 0); font-size: medium;&quot; type=&quot;disc&quot;&gt;&lt;li style=&quot;margin: 0in; font-size: 12pt; font-family: &amp;quot;Times New Roman&amp;quot;, serif;&quot; class=&quot;MsoNormal&quot;&gt;Before feeding, the console tries to reduce stock via&amp;nbsp;&lt;span style=&quot;font-size: 10pt; font-family: &amp;quot;Courier New&amp;quot;;&quot;&gt;UseFoodStock&lt;/span&gt;.&lt;/li&gt;&lt;li style=&quot;margin: 0in; font-size: 12pt; font-family: &amp;quot;Times New Roman&amp;quot;, serif;&quot; class=&quot;MsoNormal&quot;&gt;If thereâ€™s enough, then&amp;nbsp;&lt;span style=&quot;font-size: 10pt; font-family: &amp;quot;Courier New&amp;quot;;&quot;&gt;IPetService.AddFeedRecord()&lt;/span&gt;&amp;nbsp;is called; otherwise, the user is notified.&lt;/li&gt;&lt;/ul&gt;" style="text;strokeColor=none;align=left;fillColor=none;html=1;verticalAlign=middle;whiteSpace=wrap;rounded=0;" vertex="1" parent="1">
                    <mxGeometry x="70" y="-500" width="760" height="30" as="geometry"/>
                </mxCell>
            </root>
        </mxGraphModel>
    </diagram>
</mxfile>